<svg width="19" height="19" viewBox="0 0 19 19" fill="none" xmlns="http://www.w3.org/2000/svg">
<path d="M9.83923 19C7.2297 19 4.72706 17.9634 2.88184 16.1182C1.03663 14.2729 0 11.7703 0 9.16077C0 5.17418 2.29017 1.59983 5.83611 0.0565115C5.96108 0.0020458 6.09956 -0.0135156 6.2335 0.0118551C6.36744 0.0372259 6.49064 0.102352 6.58703 0.198748C6.68343 0.295144 6.74856 0.41834 6.77393 0.552283C6.7993 0.686226 6.78374 0.824705 6.72927 0.949676C6.32213 1.8844 6.10711 3.08165 6.10711 4.4108C6.10711 9.08782 9.91218 12.8929 14.5892 12.8929C15.9183 12.8929 17.1156 12.6779 18.0503 12.2707C18.1753 12.2163 18.3138 12.2007 18.4477 12.2261C18.5817 12.2514 18.7049 12.3166 18.8013 12.413C18.8976 12.5094 18.9628 12.6326 18.9881 12.7665C19.0135 12.9004 18.998 13.0389 18.9435 13.1639C17.4002 16.7098 13.8258 19 9.83923 19Z" fill="#F7F8FA"/>
</svg>
