<svg width="240" height="240" viewBox="0 0 240 240" fill="none" xmlns="http://www.w3.org/2000/svg">
<path d="M240 163.031V233.324C227.847 238.778 213.831 241.013 198.904 239.574C194.442 239.147 189.9 238.387 185.301 237.287C179.694 235.947 174.001 234.1 168.269 231.726C168.238 231.713 168.206 231.699 168.174 231.683C167.659 231.458 167.14 231.24 166.622 231.028C166.581 231.011 166.539 230.992 166.498 230.975C164.774 230.271 163.025 229.641 161.25 229.083C154.762 227.041 147.933 225.978 140.882 225.978C139.438 225.978 138.003 226.024 136.579 226.112C136.579 226.112 136.576 226.113 136.572 226.115C129.286 226.565 122.269 228.163 115.663 230.815H115.66C115.466 230.891 115.275 230.969 115.084 231.05C114.604 231.246 114.124 231.452 113.65 231.657C88.4189 242.161 63.9001 242.409 44.0281 234.296C34.1844 230.277 25.4824 224.207 18.3994 216.313C14.974 212.496 11.927 208.252 9.31261 203.61C3.08194 192.542 0 180.424 0 168.087C0 167.813 0 167.536 0.00636107 167.262C0 167.001 0 166.737 0 166.472C0 164.254 0.0985966 162.056 0.292609 159.883C0.353039 159.179 0.426192 158.477 0.508886 157.779C1.70477 147.641 4.98708 138.077 10.1046 129.462C11.628 126.898 13.3137 124.415 15.1553 122.031C20.4349 115.187 26.9996 109.11 34.6901 104.038C40.3705 100.286 46.6616 97.0831 53.5093 94.5159C62.3035 91.2213 72.0105 88.977 82.4935 87.9886C82.713 87.9691 82.9325 87.9462 83.1551 87.9267C86.9749 87.5874 90.8933 87.4113 94.9103 87.4113C96.8473 87.4113 98.7842 87.4504 100.715 87.5352C101.205 87.5515 101.691 87.5744 102.181 87.6037C103.711 87.682 105.238 87.7864 106.758 87.9136C107.089 87.943 107.416 87.9723 107.747 88.005C118.71 89.0618 129.67 91.4496 140.004 95.0639C140.293 95.165 140.586 95.2433 140.879 95.2988C141.241 95.3706 141.604 95.4064 141.963 95.4097C144.648 95.4521 147.163 93.7363 148.076 90.993C148.992 88.2431 148.013 85.3008 145.856 83.6534C145.338 83.2587 144.753 82.9391 144.107 82.714C143.038 82.3389 141.96 81.9768 140.879 81.6277C134.772 79.6542 128.487 78.0624 122.129 76.8815C121.665 76.7902 121.201 76.7021 120.736 76.6173C119.267 76.3433 117.791 76.0954 116.306 75.867C109.28 74.7971 102.114 74.2328 94.9103 74.2328C88.139 74.2328 81.6412 74.7319 75.4423 75.6811C73.9633 75.9062 72.5035 76.1574 71.0595 76.4379C70.9768 76.4509 70.8973 76.4672 70.8146 76.4836C62.523 78.0102 54.6384 80.3425 47.2787 83.4512L15.6451 27.2566C56.2923 5.50234 100.002 -4.13035 137.033 1.64666C138.325 1.84564 139.606 2.06746 140.879 2.30558C161.972 6.25913 180.731 15.383 195.282 30.3066C209.057 44.4344 217.765 62.4243 221.922 82.6553C223.786 91.7073 224.74 101.21 224.826 111.015C224.835 111.834 224.845 113.484 224.845 113.484V155.258C224.845 159.55 228.235 163.031 232.421 163.031H240Z" fill="#323335"/>
</svg>
