<svg width="20" height="20" fill="none" xmlns="http://www.w3.org/2000/svg"><path d="M10 4a.957.957 0 0 1-.957-.957V.957a.956.956 0 1 1 1.914 0v2.086A.957.957 0 0 1 10 4Zm0 16a.956.956 0 0 1-.957-.956v-2.088a.956.956 0 1 1 1.914 0v2.088A.956.956 0 0 1 10 20Zm4.92-13.963a.957.957 0 0 1-.677-1.632l1.475-1.476a.956.956 0 0 1 1.353 1.353l-1.476 1.475a.954.954 0 0 1-.676.28ZM3.604 17.351a.956.956 0 0 1-.676-1.633l1.476-1.475a.957.957 0 1 1 1.352 1.352l-1.475 1.476a.954.954 0 0 1-.677.28Zm15.439-6.394h-2.088a.956.956 0 1 1 0-1.914h2.088a.956.956 0 1 1 0 1.914Zm-16 0H.956a.957.957 0 0 1 0-1.914h2.086a.956.956 0 1 1 0 1.914Zm13.35 6.394a.955.955 0 0 1-.676-.28l-1.475-1.476a.957.957 0 0 1 1.352-1.352l1.476 1.475a.957.957 0 0 1-.676 1.633ZM5.082 6.037a.952.952 0 0 1-.676-.28L2.929 4.282a.957.957 0 0 1 1.353-1.353l1.475 1.476a.957.957 0 0 1-.676 1.632ZM10 14.435a4.435 4.435 0 1 1 0-8.87 4.435 4.435 0 0 1 0 8.87Z" fill="#323335"/></svg>