<svg width="240" height="240" fill="none" xmlns="http://www.w3.org/2000/svg"><path d="M240 163.031v70.293c-12.153 5.454-26.169 7.689-41.096 6.25a99.052 99.052 0 0 1-13.603-2.287c-5.607-1.34-11.3-3.187-17.032-5.561a71.97 71.97 0 0 0-1.647-.698l-.124-.053a67.11 67.11 0 0 0-5.248-1.892c-6.488-2.042-13.317-3.105-20.368-3.105a69.76 69.76 0 0 0-4.303.134l-.007.003a67.062 67.062 0 0 0-20.909 4.7h-.003a76.06 76.06 0 0 0-2.01.842c-25.231 10.504-49.75 10.752-69.622 2.639-9.844-4.019-18.546-10.089-25.629-17.983a71.558 71.558 0 0 1-9.086-12.703C3.082 192.542 0 180.424 0 168.087c0-.274 0-.551.006-.825-.006-.261-.006-.525-.006-.79a74.085 74.085 0 0 1 .509-8.693 71.683 71.683 0 0 1 9.596-28.317 73.925 73.925 0 0 1 5.05-7.431c5.28-6.844 11.845-12.921 19.535-17.993 5.68-3.752 11.972-6.955 18.82-9.522 8.794-3.295 18.5-5.539 28.983-6.527.22-.02.44-.043.662-.062 3.82-.34 7.738-.516 11.755-.516 1.937 0 3.874.04 5.805.124.49.017.976.04 1.466.069 1.53.078 3.057.182 4.577.31.331.029.658.058.989.091 10.963 1.057 21.923 3.445 32.257 7.059.289.101.582.18.875.235.362.072.725.107 1.084.11 2.685.043 5.2-1.673 6.113-4.416.916-2.75-.063-5.692-2.22-7.34a6.295 6.295 0 0 0-1.749-.939 135.824 135.824 0 0 0-3.228-1.086 150.4 150.4 0 0 0-18.75-4.746 141.287 141.287 0 0 0-5.823-1.014 142.271 142.271 0 0 0-21.396-1.635c-6.771 0-13.269.499-19.468 1.448-1.479.225-2.938.476-4.382.757-.083.013-.163.03-.245.046-8.292 1.526-16.177 3.859-23.536 6.967L15.645 27.257C56.292 5.502 100.002-4.13 137.033 1.647c1.292.199 2.573.42 3.846.659 21.093 3.953 39.852 13.077 54.403 28 13.775 14.128 22.483 32.118 26.64 52.35 1.864 9.051 2.818 18.554 2.904 28.359.009.819.019 2.469.019 2.469v41.774c0 4.292 3.39 7.773 7.576 7.773H240Z" fill="#F7F8FA"/></svg>